<?xml version="1.0" encoding="iso-8859-1"?>
<!-- Generator: Adobe Illustrator 18.0.0, SVG Export Plug-In . SVG Version: 6.00 Build 0)  -->
<!DOCTYPE svg PUBLIC "-//W3C//DTD SVG 1.1//EN" "http://www.w3.org/Graphics/SVG/1.1/DTD/svg11.dtd">
<svg version="1.1" id="Capa_1" xmlns="http://www.w3.org/2000/svg" xmlns:xlink="http://www.w3.org/1999/xlink" x="0px" y="0px"
	 viewBox="0 0 294.565 294.565" style="enable-background:new 0 0 294.565 294.565;" xml:space="preserve">
<g>
	<g>
		<path d="M294.565,121.059c0-19.911-14.474-36.494-33.45-39.809c-2.159-20.691-14.031-39.798-33.983-54.391
			c-21.443-15.684-49.83-24.32-79.932-24.32c-30.101,0-58.486,8.637-79.93,24.32c-19.962,14.6-31.837,33.719-33.987,54.42
			C14.389,84.662,0,101.206,0,121.059c0,19.699,14.168,36.144,32.848,39.701l30.796,125.554c0.823,3.354,3.83,5.713,7.284,5.713
			H223.64c3.454,0,6.461-2.358,7.284-5.713l30.797-125.554C280.398,157.201,294.565,140.758,294.565,121.059z M48.469,161.482
			h12.353l20.002,115.544h-4.013L48.469,161.482z M183.389,161.482l-12.107,115.544h-16.498V161.482H183.389z M218.523,161.482
			l-20.001,115.544h-12.159l12.107-115.544H218.523z M139.783,277.026h-16.497l-12.108-115.544h28.606V277.026z M96.097,161.482
			l12.108,115.544h-12.16L76.044,161.482H96.097z M217.757,277.026h-4.013l20.002-115.544h12.353L217.757,277.026z M254.142,146.482
			H40.424C26.405,146.482,15,135.077,15,121.059c0-14.019,11.405-25.424,25.424-25.424c4.143,0,7.5-3.357,7.5-7.5
			c0-38.927,44.535-70.596,99.276-70.596c54.742,0,99.278,31.669,99.278,70.596c0,4.143,3.357,7.5,7.5,7.5
			c0.027,0,0.055-0.004,0.082-0.004c0.027,0,0.054,0.004,0.081,0.004c14.018,0,25.424,11.405,25.424,25.424
			C279.565,135.077,268.16,146.482,254.142,146.482z"/>
		<path d="M147.283,32.5c-14.607,0-26.048,9.297-26.048,21.166c0,11.87,11.441,21.168,26.048,21.168
			c14.606,0,26.048-9.298,26.048-21.168C173.331,41.797,161.89,32.5,147.283,32.5z M147.283,59.834
			c-6.222,0-11.048-3.315-11.048-6.168c0-2.852,4.826-6.166,11.048-6.166c6.222,0,11.048,3.314,11.048,6.166
			C158.331,56.519,153.505,59.834,147.283,59.834z"/>
		<path d="M205.186,77.884c-6.977,0-14.196,3.216-19.805,8.824c-4.628,4.626-7.666,10.409-8.557,16.284
			c-1.003,6.621,0.856,12.854,5.105,17.104c3.466,3.464,8.289,5.372,13.58,5.372c6.979,0,14.197-3.217,19.806-8.824
			c4.627-4.628,7.665-10.41,8.555-16.284c1.004-6.622-0.857-12.855-5.104-17.102C215.302,79.792,210.479,77.884,205.186,77.884z
			 M209.04,98.111c-0.408,2.691-1.986,5.58-4.332,7.925c-2.732,2.733-6.258,4.432-9.198,4.432c-0.909,0-2.164-0.171-2.974-0.979
			c-1.194-1.195-1.014-3.37-0.88-4.249c0.407-2.691,1.986-5.579,4.332-7.924c2.733-2.734,6.258-4.432,9.198-4.432
			c0.909,0,2.163,0.17,2.974,0.98C209.355,95.059,209.173,97.232,209.04,98.111z"/>
		<path d="M109.187,86.708c-5.609-5.608-12.828-8.824-19.806-8.824c-5.292,0-10.115,1.908-13.581,5.373
			c-4.246,4.247-6.106,10.48-5.104,17.103c0.891,5.874,3.929,11.657,8.556,16.284c5.608,5.607,12.826,8.823,19.805,8.824
			c0.001,0,0.001,0,0.001,0c5.291,0,10.114-1.908,13.58-5.373c4.247-4.248,6.107-10.481,5.104-17.103
			C116.852,97.118,113.813,91.335,109.187,86.708z M102.031,109.487c-0.81,0.811-2.063,0.98-2.973,0.98h-0.001
			c-2.941-0.001-6.466-1.698-9.199-4.432c-2.345-2.345-3.924-5.233-4.331-7.925c-0.134-0.879-0.314-3.054,0.88-4.247
			c0.81-0.811,2.064-0.98,2.974-0.98c2.94,0,6.465,1.697,9.199,4.432c2.345,2.345,3.923,5.232,4.331,7.924
			C103.044,106.118,103.226,108.293,102.031,109.487z"/>
	</g>
</g>
<g>
</g>
<g>
</g>
<g>
</g>
<g>
</g>
<g>
</g>
<g>
</g>
<g>
</g>
<g>
</g>
<g>
</g>
<g>
</g>
<g>
</g>
<g>
</g>
<g>
</g>
<g>
</g>
<g>
</g>
</svg>
