<svg id="Capa_1" enable-background="new 0 0 480 480" height="512" viewBox="0 0 480 480" width="512" xmlns="http://www.w3.org/2000/svg"><path d="m173.858 214.548-9.192-13.1c-4.778 3.355-9.242 7.138-13.336 11.3l11.41 11.217c3.413-3.469 7.135-6.621 11.118-9.417z"/><path d="m396 168c-18.145.008-35.795 5.913-50.292 16.826-6.23-5.601-12.996-10.576-20.2-14.854-13.361-18.528-32.85-31.706-55.869-37.9 1.568-3.831 2.37-7.932 2.361-12.072 0-17.673-14.327-32-32-32s-32 14.327-32 32c-.008 4.139.795 8.24 2.364 12.071-23.019 6.195-42.508 19.373-55.869 37.9-23.48 13.963-41.902 35.042-52.595 60.18-10.26-3.569-17.808-12.381-19.757-23.068l-.257-1.417c-6.48-35.716-37.587-61.678-73.886-61.666-4.418 0-8 3.582-8 8v32c0 3.444 2.203 6.501 5.47 7.59 11.965 3.97 20.744 14.243 22.8 26.68l6.224 37.341c3.985 23.686 19.026 44.051 40.492 54.826l24.043 12.02c10.229 28.887 30.437 53.171 56.984 68.478 1.213.698 2.588 1.065 3.987 1.065h160c1.4 0 2.775-.367 3.989-1.065 13.885-7.998 26.147-18.529 36.15-31.047 41.843 19.875 91.874 2.066 111.749-39.777 5.359-11.283 8.131-23.62 8.112-36.111v-32c-.055-46.369-37.631-83.945-84-84zm-21.226 54.956c6.147-4.534 13.588-6.972 21.226-6.956 19.873.022 35.978 16.127 36 36v32c-.022 19.873-16.127 35.978-36 36-4.571-.01-9.097-.902-13.33-2.625 9.653-31.313 6.822-65.146-7.9-94.419zm-2.474 57.044h-52.3v-40c0-4.418-3.582-8-8-8h-24v-48h29.823c33.711 20.258 54.374 56.67 54.477 96zm-84.3-16v-16h16v64h-48v-64h16v16zm-63.169-118.663c4.365-.685 7.348-4.779 6.662-9.144-.275-1.754-1.127-3.367-2.419-4.584-3.234-2.994-5.073-7.202-5.074-11.609 0-8.837 7.163-16 16-16s16 7.163 16 16c-.001 4.407-1.84 8.615-5.074 11.609-3.217 3.029-3.37 8.092-.341 11.309 1.217 1.293 2.83 2.144 4.584 2.419 18.564 2.915 34.94 10.8 47.472 22.663h-125.282c12.532-11.86 28.908-19.748 47.472-22.663zm-62.654 38.663h109.823v48h-24c-4.418 0-8 3.582-8 8v40h-100.3c.007-15.656 4.634-30.962 13.3-44l-13.344-8.828c-10.401 15.655-15.952 34.032-15.956 52.828h-16c.103-39.33 20.766-75.742 54.477-96zm-80.037 112.126c-16.893-8.479-28.73-24.506-31.866-43.146l-6.224-37.341c-2.68-16.212-13.171-30.065-28.05-37.039v-18.061c25.342 3.454 45.583 22.824 50.147 47.99l.258 1.417c2.962 16.343 14.483 29.832 30.161 35.314-5.265 18.398-6.277 37.753-2.958 56.6zm235.683 79.874h-155.646c-28.839-17.351-48.395-46.703-53.3-80h131.123v24c0 4.418 3.582 8 8 8h64c4.418 0 8-3.582 8-8v-24h51.127c-4.906 33.298-24.464 62.65-53.304 80zm146.177-92c.066 37.49-30.272 67.934-67.762 68-9.193.016-18.293-1.835-26.748-5.441 2.796-4.572 5.304-9.315 7.509-14.2 26.652 10.549 56.809-2.504 67.358-29.156 2.419-6.112 3.656-12.629 3.643-19.203v-32c-.033-28.705-23.295-51.967-52-52-10.46-.025-20.68 3.136-29.3 9.061-2.956-4.423-6.183-8.658-9.663-12.682 30.649-21.586 72.995-14.239 94.581 16.411 8.082 11.475 12.408 25.174 12.382 39.21z"/></svg>